HIERARCHY
ROOT Hips
{
	OFFSET 0.000000 8.830580 0.000000
	CHANNELS 6 Xposition Yposition Zposition Zrotation Yrotation Xrotation 
	JOINT Spine
	{
		OFFSET 0.000000 0.010000 0.000000
		CHANNELS 3 Zrotation Yrotation Xrotation
		JOINT Spine1
		{
			OFFSET 0.000000 2.459130 0.000000
			CHANNELS 3 Zrotation Yrotation Xrotation
			JOINT Neck
			{
				OFFSET 0.000000 2.484630 0.000000
				CHANNELS 3 Zrotation Yrotation Xrotation
				JOINT Head_virtual
				{
					OFFSET 0.000000 0.000000 0.000000
					CHANNELS 3 Zrotation Yrotation Xrotation
					JOINT Head
					{
						OFFSET 0.000000 0.927525 0.000000
						CHANNELS 3 Zrotation Yrotation Xrotation
						End Site
						{
							OFFSET 0.000000 0.000000 0.000000
						}
					}
				}
				JOINT LeftUpArm_virtual
				{
					OFFSET 0.000000 0.000000 0.000000
					CHANNELS 3 Zrotation Yrotation Xrotation
					JOINT LeftUpArm
					{
						OFFSET 1.248820 0.000000 0.000000
						CHANNELS 3 Zrotation Yrotation Xrotation
						JOINT LeftForeArm
						{
							OFFSET 2.597580 0.000000 0.000000
							CHANNELS 3 Zrotation Yrotation Xrotation
							JOINT LeftHand
							{
								OFFSET 2.455420 0.000000 0.000000
								CHANNELS 3 Zrotation Yrotation Xrotation
								End Site
								{
									OFFSET 0.000000 0.000000 0.000000
								}
							}
						}
					}
				}
				JOINT RightUpArm_virtual
				{
					OFFSET -0.000000 -0.000000 -0.000000
					CHANNELS 3 Zrotation Yrotation Xrotation
					JOINT RightUpArm
					{
						OFFSET -1.248820 -0.000000 -0.000000
						CHANNELS 3 Zrotation Yrotation Xrotation
						JOINT RightForeArm
						{
							OFFSET -2.597580 -0.000000 -0.000000
							CHANNELS 3 Zrotation Yrotation Xrotation
							JOINT RightHand
							{
								OFFSET -2.455420 -0.000000 -0.000000
								CHANNELS 3 Zrotation Yrotation Xrotation
								End Site
								{
									OFFSET 0.000000 0.000000 0.000000
								}
							}
						}
					}
				}
			}
		}
	}
	JOINT LeftUpLeg
	{
		OFFSET 1.271939 0.000000 0.000000
		CHANNELS 3 Zrotation Yrotation Xrotation
		JOINT LeftLowLeg
		{
			OFFSET 0.000000 -4.342910 0.000000
			CHANNELS 3 Zrotation Yrotation Xrotation
			JOINT LeftFoot
			{
				OFFSET 0.000000 -4.487670 0.000000
				CHANNELS 3 Zrotation Yrotation Xrotation
				JOINT LeftToeBase
				{
					OFFSET 0.000000 0.000000 1.515070
					CHANNELS 3 Zrotation Yrotation Xrotation
					End Site
					{
						OFFSET 0.000000 0.000000 0.000000
					}
				}
			}
		}
	}
	JOINT RightUpLeg
	{
		OFFSET -1.271939 0.000000 0.000000
		CHANNELS 3 Zrotation Yrotation Xrotation
		JOINT RightLowLeg
		{
			OFFSET 0.000000 -4.342910 0.000000
			CHANNELS 3 Zrotation Yrotation Xrotation
			JOINT RightFoot
			{
				OFFSET 0.000000 -4.487670 0.000000
				CHANNELS 3 Zrotation Yrotation Xrotation
				JOINT RightToeBase
				{
					OFFSET 0.000000 0.000000 1.515070
					CHANNELS 3 Zrotation Yrotation Xrotation
					End Site
					{
						OFFSET 0.000000 0.000000 0.000000
					}
				}
			}
		}
	}
}
MOTION
Frames: 8
Frame Time: 0.041667
-17.361268 6.384569 36.093565 175.557084 8.938339 -170.924656 -1.535589 8.739998 4.407529 0.250475 -12.826845 4.689702 0.000000 0.000000 0.000000 -0.839494 -1.606788 10.854383 -12.996573 -17.928560 -79.399395 -13.885100 -0.866904 2.786011 -7.573760 -46.452400 -25.453501 -180.000000 -69.051003 180.000000 64.415604 -17.071400 17.766500 23.927700 -5.255520 5.011993 38.380001 6.475610 26.398010 -180.000000 73.983002 -180.000000 -15.296000 0.986290 2.594890 -11.005094 3.747911 -74.990722 0.000000 0.000000 76.855003 -89.496724 -22.651369 -1.036129 0.000000 0.000000 40.870701 2.291315 2.832133 -77.924570 0.000000 0.000000 80.824898 21.363819 -2.331098 2.490963 0.000000 0.000000 -23.804950 
-17.358712 6.382586 36.096210 175.485502 8.945923 -171.014212 -1.451218 8.795924 4.402011 0.076172 -12.771672 4.847100 0.000000 0.000000 0.000000 -2.399317 -0.853643 11.410876 -13.357462 -18.560264 -79.225842 -14.020100 -0.596167 3.138000 -4.377090 -46.289200 -21.455099 -180.000000 -68.169998 180.000000 62.595299 -23.948799 22.089701 23.802999 -5.180710 5.045990 38.316601 6.413280 26.503998 -180.000000 74.045998 -180.000000 -15.764200 1.664030 3.865320 -11.058818 3.785962 -74.910289 0.000000 0.000000 76.828697 -89.526552 -22.671946 -0.991850 0.000000 0.000000 40.878300 2.240991 2.858408 -77.845460 0.000000 0.000000 80.819000 21.306814 -2.341772 2.367379 0.000000 0.000000 -23.775950 
-17.355981 6.379492 36.098536 175.460886 8.954013 -171.178617 -1.353333 8.854598 4.448724 -0.079023 -12.706023 5.022591 0.000000 0.000000 0.000000 -3.651567 -0.140941 11.932099 -13.564830 -19.005768 -79.116664 -14.032100 -0.324052 2.890991 -2.035560 -46.278301 -16.029800 180.000000 -68.001999 -180.000000 60.792900 -30.532900 24.220600 23.627501 -5.032330 5.079987 38.276501 6.276840 26.636993 -180.000000 74.123001 180.000000 -16.092800 2.361590 4.798500 -11.061112 3.842087 -74.766000 0.000000 0.000000 76.835800 -89.562145 -22.735050 -0.940371 0.000000 0.000000 40.848701 2.233091 2.891004 -77.683752 0.000000 0.000000 80.814598 21.251281 -2.354458 2.248499 0.000000 0.000000 -23.737200 
-17.353916 6.375342 36.101501 175.431947 8.924567 -171.305283 -1.334254 8.928637 4.357300 -0.149274 -12.636375 5.366064 0.000000 0.000000 0.000000 -4.606488 0.457320 12.280553 -13.637565 -19.308319 -79.014897 -13.978100 -0.287885 1.845001 -0.768892 -46.242901 -9.865970 -180.000000 -68.551003 180.000000 59.047600 -37.670502 26.400299 23.435101 -4.939330 5.053986 38.243599 6.255830 26.641998 -180.000000 74.167000 -180.000000 -15.757400 2.893110 5.321970 -11.067541 3.860236 -74.666948 0.000000 0.000000 76.844902 -89.543934 -22.784579 -0.899495 0.000000 0.000000 40.828098 2.233762 2.886491 -77.575558 0.000000 0.000000 80.829498 21.182393 -2.378297 2.117424 0.000000 0.000000 -23.713740 
-17.351294 6.370207 36.105340 175.406762 8.901798 -171.411461 -1.267267 8.923688 4.394089 -0.325595 -12.642606 5.476380 0.000000 0.000000 0.000000 -5.370057 1.098121 12.627017 -13.615901 -19.448848 -79.003731 -13.898500 -0.354220 1.278015 0.760368 -45.957100 -5.099550 180.000000 -69.210999 -180.000000 59.042500 -42.925598 26.013399 23.285200 -4.910060 5.216003 38.184399 6.471440 26.742004 -180.000000 74.198998 180.000000 -15.273600 3.154260 5.674560 -11.098618 3.894648 -74.608034 0.000000 0.000000 76.847702 -89.287831 -22.778811 -0.995771 0.000000 0.000000 40.946701 2.221508 2.909078 -77.529374 0.000000 0.000000 80.881897 21.154899 -2.426339 2.049438 0.000000 0.000000 -23.674950 
-17.349331 6.365263 36.109242 175.390136 8.886285 -171.538024 -1.210355 8.890382 4.360761 -0.528775 -12.679713 5.780168 0.000000 0.000000 0.000000 -5.877446 1.592877 12.839444 -13.740524 -19.493128 -79.031697 -13.833300 -0.596798 0.940002 2.269530 -45.477600 -2.505680 180.000000 -70.221001 -180.000000 59.867401 -46.718201 27.789301 23.180000 -4.917650 5.190002 38.060101 6.760240 27.023010 -180.000000 74.269997 -180.000000 -14.834200 3.857290 5.814190 -11.096833 3.918156 -74.545820 0.000000 0.000000 76.887299 -89.258883 -22.763762 -0.954666 0.000000 0.000000 40.905300 2.201842 2.930123 -77.474010 0.000000 0.000000 80.934700 21.150175 -2.449125 2.035660 0.000000 0.000000 -23.670020 
-17.348133 6.360940 36.113863 175.363467 8.880280 -171.683884 -1.173953 8.784458 4.498657 -0.644580 -12.783387 5.823176 0.000000 0.000000 0.000000 -6.324264 2.035277 13.081356 -13.945188 -19.514324 -79.046991 -13.763700 -0.871704 0.933014 3.226940 -44.514301 -2.219140 180.000000 -71.092003 -180.000000 63.437500 -48.600399 22.927200 23.104500 -4.985500 5.106995 37.877701 7.094840 27.488007 -180.000000 74.277000 -180.000000 -14.678100 4.524840 6.281380 -11.078494 3.939349 -74.481789 0.000000 0.000000 76.952003 -89.547907 -22.748420 -0.777049 0.000000 0.000000 40.825600 2.158052 2.964128 -77.410036 0.000000 0.000000 80.985397 21.208893 -2.455050 2.062994 0.000000 0.000000 -23.685730 
-17.346637 6.358158 36.118291 175.345242 8.911248 -171.782567 -1.201750 8.653061 4.580113 -0.680999 -12.916516 5.909851 0.000000 0.000000 0.000000 -6.687609 2.407444 13.174552 -14.165122 -19.505742 -79.005324 -13.586500 -1.038150 0.802002 3.050230 -43.343201 -3.677950 -180.000000 -71.865997 180.000000 65.254997 -47.829899 20.701799 23.129000 -4.972770 4.891998 37.576099 7.336950 27.876007 180.000000 74.153000 180.000000 -14.302300 4.911860 6.761670 -11.076817 4.001937 -74.450823 0.000000 0.000000 76.984596 -89.509727 -22.674094 -0.741296 0.000000 0.000000 40.832298 2.131034 3.024900 -77.366150 0.000000 0.000000 80.999702 21.187543 -2.480832 2.095765 0.000000 0.000000 -23.682960 
